<?xml version="1.0" encoding="utf-8"?>
<!-- Generator: Adobe Illustrator 17.0.0, SVG Export Plug-In . SVG Version: 6.00 Build 0)  -->
<!DOCTYPE svg PUBLIC "-//W3C//DTD SVG 1.1//EN" "http://www.w3.org/Graphics/SVG/1.1/DTD/svg11.dtd">
<svg version="1.1" id="Capa_1" xmlns="http://www.w3.org/2000/svg" xmlns:xlink="http://www.w3.org/1999/xlink" x="0px" y="0px"
	 width="171.232px" height="200.397px" viewBox="0 0 171.232 200.397" enable-background="new 0 0 171.232 200.397"
	 xml:space="preserve">
<g>
	<circle fill="#335087" cx="85.616" cy="85.618" r="85.616"/>
	<polygon fill="#335087" points="127.804,159.449 124.077,200.397 83.75,166.274 	"/>
</g>
<g>
	<path fill="#F1F1F1" d="M94.9,125.818c0,1.571-1.756,2.843-3.927,2.843H75.26c-2.169,0-3.928-1.272-3.928-2.843l0,0
		c0-1.57,1.759-2.841,3.928-2.841h15.714C93.145,122.976,94.9,124.248,94.9,125.818L94.9,125.818z"/>
	<path fill="#F1F1F1" d="M94.9,131.859c0,1.565-1.756,2.843-3.927,2.843H75.26c-2.169,0-3.928-1.277-3.928-2.843l0,0
		c0-1.57,1.759-2.846,3.928-2.846h15.714C93.145,129.014,94.9,130.289,94.9,131.859L94.9,131.859z"/>
	<path fill="#F1F1F1" d="M90.214,137.896c0,1.57-1.06,2.841-2.365,2.841h-9.463c-1.306,0-2.364-1.271-2.364-2.841l0,0
		c0-1.571,1.059-2.843,2.364-2.843h9.463C89.154,135.053,90.214,136.325,90.214,137.896L90.214,137.896z"/>
	<path fill="#F1F1F1" d="M83.584,32.554v-0.062c0,0-0.659,0.025-0.998,0.03c-0.33-0.004,0.998-0.03-0.967-0.03v0.059
		c-49.105,1.258-37.171,50.059-23.84,62.033c13.505,12.135,12.988,27.362,12.988,27.362h11.785h1.964h10.852
		c0,0-0.982-15.228,12.522-27.362C121.215,82.614,132.688,33.853,83.584,32.554z M107.317,77.85
		c8.35-22.838-14.24-35.524-14.24-35.524C126.633,47.721,107.317,77.85,107.317,77.85z"/>
</g>
</svg>
