<?xml version="1.0" encoding="utf-8"?>
<!-- Generator: Adobe Illustrator 17.0.0, SVG Export Plug-In . SVG Version: 6.00 Build 0)  -->
<!DOCTYPE svg PUBLIC "-//W3C//DTD SVG 1.1//EN" "http://www.w3.org/Graphics/SVG/1.1/DTD/svg11.dtd">
<svg version="1.1" id="Capa_1" xmlns="http://www.w3.org/2000/svg" xmlns:xlink="http://www.w3.org/1999/xlink" x="0px" y="0px"
	 width="17.469px" height="17.938px" viewBox="0 0 17.469 17.938" enable-background="new 0 0 17.469 17.938" xml:space="preserve">
<g>
	<g>
		<g>
			<g>
				<g>
					<path fill="#808078" d="M15.344,17.744c-0.229,0.207-0.586,0.189-0.793-0.039l-4.31-4.744c-0.207-0.228-0.19-0.585,0.039-0.792
						l1.874-1.695c0.229-0.207,0.586-0.19,0.794,0.039l4.309,4.745c0.207,0.229,0.19,0.585-0.039,0.792L15.344,17.744z"/>
				</g>
			</g>
		</g>
		<g>
			<path fill="#808078" d="M0.201,6.371c0-0.673,0.11-1.359,0.343-2.031c1.123-3.242,4.659-4.96,7.9-3.839
				c2.57,0.889,4.183,3.295,4.183,5.87c0,0.673-0.111,1.359-0.343,2.031c-1.122,3.243-4.66,4.96-7.901,3.839
				C1.813,11.351,0.201,8.945,0.201,6.371 M1.884,6.371c0,1.927,1.225,3.647,3.048,4.278c1.143,0.397,2.372,0.322,3.46-0.206
				c1.088-0.529,1.905-1.449,2.3-2.592c0.165-0.481,0.25-0.98,0.25-1.481c0-1.929-1.224-3.647-3.048-4.278
				C6.751,1.697,5.522,1.77,4.435,2.299c-1.089,0.528-1.906,1.448-2.3,2.591V4.89C1.968,5.371,1.884,5.869,1.884,6.371L1.884,6.371z
				"/>
		</g>
	</g>
</g>
</svg>
